<svg width="20" height="20" viewBox="0 0 20 20" fill="none" xmlns="http://www.w3.org/2000/svg">
<rect width="20" height="20" rx="4" fill="#090909"/>
<path d="M7.41991 8.40039C7.45432 8.33793 7.54385 8.33723 7.57923 8.39915L9.0131 10.9084C9.02875 10.9358 9.02916 10.9694 9.01418 10.9971L6.43948 15.7689C6.42354 15.7984 6.39267 15.8169 6.35909 15.8169H3.4886C3.41909 15.8169 3.37505 15.7423 3.40859 15.6814L7.41991 8.40039Z" fill="white"/>
<path d="M10.3238 4.21355C10.3078 4.18424 10.277 4.16602 10.2436 4.16602H9.79281C9.759 4.16602 9.72795 4.18469 9.71211 4.21457L8.53598 6.43242C8.52163 6.45947 8.5218 6.4919 8.53641 6.51881L13.5614 15.7718C13.5774 15.8012 13.6082 15.8196 13.6417 15.8196H16.513C16.5823 15.8196 16.6264 15.7453 16.5931 15.6844L10.3238 4.21355Z" fill="white"/>
<path d="M10.6623 12.8798C10.6469 12.7355 10.5819 12.6231 10.4674 12.5427C10.3539 12.4623 10.2063 12.4221 10.0246 12.4221C9.8968 12.4221 9.78721 12.4414 9.69579 12.4799C9.60436 12.5185 9.53442 12.5708 9.48596 12.6369C9.43749 12.703 9.41271 12.7784 9.41161 12.8632C9.41161 12.9337 9.42758 12.9949 9.45952 13.0466C9.49257 13.0984 9.53718 13.1425 9.59335 13.1788C9.64952 13.2141 9.71176 13.2438 9.78005 13.268C9.84834 13.2923 9.91718 13.3126 9.98657 13.3292L10.3038 13.4085C10.4316 13.4382 10.5544 13.4784 10.6722 13.5291C10.7912 13.5797 10.8975 13.6436 10.9911 13.7207C11.0858 13.7978 11.1607 13.8909 11.2158 13.9999C11.2709 14.109 11.2984 14.2368 11.2984 14.3832C11.2984 14.5815 11.2477 14.7561 11.1464 14.907C11.0451 15.0568 10.8986 15.1741 10.7069 15.2589C10.5164 15.3426 10.2856 15.3845 10.0147 15.3845C9.75141 15.3845 9.52286 15.3437 9.329 15.2622C9.13625 15.1807 8.98535 15.0617 8.8763 14.9053C8.76836 14.7489 8.70998 14.5584 8.70117 14.3337H9.30422C9.31303 14.4515 9.34938 14.5496 9.41326 14.6278C9.47715 14.706 9.56031 14.7643 9.66274 14.8029C9.76628 14.8415 9.88193 14.8607 10.0097 14.8607C10.143 14.8607 10.2597 14.8409 10.36 14.8012C10.4613 14.7605 10.5406 14.7043 10.5979 14.6327C10.6552 14.56 10.6843 14.4752 10.6854 14.3783C10.6843 14.2902 10.6585 14.2175 10.6078 14.1602C10.5571 14.1018 10.4861 14.0534 10.3947 14.0148C10.3043 13.9752 10.1986 13.9399 10.0774 13.9091L9.69248 13.8099C9.41381 13.7383 9.19352 13.6299 9.03161 13.4845C8.8708 13.338 8.79039 13.1436 8.79039 12.9012C8.79039 12.7019 8.84436 12.5273 8.9523 12.3775C9.06135 12.2277 9.20949 12.1115 9.39674 12.0289C9.58399 11.9452 9.79602 11.9033 10.0328 11.9033C10.2729 11.9033 10.4833 11.9452 10.664 12.0289C10.8457 12.1115 10.9883 12.2266 11.0919 12.3742C11.1954 12.5207 11.2488 12.6892 11.2521 12.8798H10.6623Z" fill="white"/>
<rect x="9.60645" y="11.4688" width="0.225419" height="4.35143" fill="white"/>
<rect x="10.127" y="11.4678" width="0.224567" height="4.35143" fill="white"/>
</svg>
