<svg xmlns="http://www.w3.org/2000/svg" width="36" height="36" viewBox="0 0 36 36" fill="none">
<rect width="36" height="36" rx="8" fill="#090909"/>
<path d="M13.4175 15.0125C13.4519 14.95 13.5414 14.9493 13.5768 15.0112L16.2425 19.6762C16.2582 19.7036 16.2586 19.7371 16.2436 19.7649L11.5692 28.4282C11.5532 28.4578 11.5224 28.4762 11.4888 28.4762H6.15462C6.08511 28.4762 6.04107 28.4016 6.07461 28.3407L13.4175 15.0125Z" fill="white"/>
<path d="M18.5614 7.54754C18.5454 7.51823 18.5147 7.5 18.4813 7.5H17.5825C17.5487 7.5 17.5177 7.51868 17.5018 7.54855L15.3458 11.6142C15.3315 11.6412 15.3316 11.6737 15.3462 11.7006L24.4308 28.4286C24.4467 28.4581 24.4775 28.4764 24.511 28.4764H29.846C29.9153 28.4764 29.9594 28.4021 29.9261 28.3412L18.5614 7.54754Z" fill="white"/>
</svg>