<svg width="36" height="36" viewBox="0 0 36 36" fill="none" xmlns="http://www.w3.org/2000/svg">
<rect width="36" height="36" rx="8" fill="#12151E"/>
<path fill-rule="evenodd" clip-rule="evenodd" d="M15.082 12.0759L13.491 13.667L14.8747 15.0506L13.2834 16.6419L14.9639 18.3225L13.4288 19.8577L12.6696 19.0985L11.0724 20.6957L12.6223 22.2456L5.19407 29.6738L6.79129 31.271L14.2195 23.8428L15.7701 25.3934L17.3673 23.7962L16.6073 23.0362L18.1425 21.5011L19.8233 23.1819L21.4146 21.5906L22.7984 22.9744L24.3895 21.3834L15.082 12.0759Z" fill="#5B5A6E"/>
<rect x="24.6367" y="24.8123" width="2.62843" height="2.62843" transform="rotate(-45 24.6367 24.8123)" fill="#FA9331"/>
<rect x="9.79492" y="9.97034" width="2.62843" height="2.62843" transform="rotate(-45 9.79492 9.97034)" fill="#FA9331"/>
<rect x="14.7109" y="8.29407" width="2.62843" height="2.62843" transform="rotate(-45 14.7109 8.29407)" fill="#FA9331"/>
<rect x="21.3574" y="8.26501" width="2.62843" height="2.62843" transform="rotate(-45 21.3574 8.26501)" fill="#FA9331"/>
<rect x="26.3145" y="19.8971" width="2.62843" height="2.62843" transform="rotate(-45 26.3145 19.8971)" fill="#FA9331"/>
<rect x="26.3691" y="13.2762" width="2.62843" height="2.62843" transform="rotate(-45 26.3691 13.2762)" fill="#FA9331"/>
<rect x="19.7207" y="26.4897" width="2.62843" height="2.62843" transform="rotate(-45 19.7207 26.4897)" fill="#FA9331"/>
<rect x="8.11719" y="14.8868" width="2.62843" height="2.62843" transform="rotate(-45 8.11719 14.8868)" fill="#FA9331"/>
<rect x="16.5508" y="13.5453" width="2.25006" height="9.00699" transform="rotate(-45 16.5508 13.5453)" fill="#FA9331"/>
<rect x="16.8242" y="16.3359" width="6.28022" height="4.67355" transform="rotate(-45 16.8242 16.3359)" fill="#FA9331"/>
<rect x="19.7363" y="16.7297" width="2.25006" height="4.5035" transform="rotate(-45 19.7363 16.7297)" fill="#F9D040"/>
</svg>